Coordinates
version=1
nRows=24
nColumns=24
inDegrees=yes

Units are S.I. units (second, meters, Newtons, ...)
Angles are in degrees.

endheader
time	pelvis_tilt	pelvis_list	pelvis_rotation	pelvis_tx	pelvis_ty	pelvis_tz	hip_flexion_r	hip_adduction_r	hip_rotation_r	knee_angle_r	ankle_angle_r	subtalar_angle_r	mtp_angle_r	hip_flexion_l	hip_adduction_l	hip_rotation_l	knee_angle_l	ankle_angle_l	subtalar_angle_l	mtp_angle_l	lumbar_extension	lumbar_bending	lumbar_rotation
      0.66466667	     -5.12195786	     -2.42170627	      3.89895836	     -0.45575044	      0.89700049	      0.30754449	     17.26317513	      8.18443927	     -3.05368235	    -24.77590687	     15.89002669	     -1.62880446	      3.99341855	     25.68346339	     -5.85769562	     -6.68737052	    -77.55639871	      1.19679104	     -8.76981034	     -0.71640212	     -5.10914720	      3.49258711	      1.22761851
      0.66883333	     -5.17617286	     -2.20928809	      3.79929192	     -0.45016350	      0.89823770	      0.30754961	     16.58975420	      8.00278228	     -2.89946986	    -24.15252817	     15.95219900	     -1.50166431	      4.02563579	     26.39760998	     -5.54120191	     -6.84343729	    -77.13653718	      1.51747099	     -9.23758154	     -0.80536869	     -5.07520908	      3.26389565	      1.46501772
      0.67300000	     -5.22100356	     -2.00882989	      3.69574561	     -0.44458882	      0.89944667	      0.30756355	     15.90576242	      7.83468377	     -2.73426125	    -23.51663060	     15.96297931	     -1.37680178	      4.04170744	     27.08584226	     -5.24035653	     -6.99058930	    -76.65686213	      1.93494207	     -9.61634637	     -0.84781448	     -5.06853567	      3.05591445	      1.58364391
      0.67716667	     -5.22473749	     -1.79453558	      3.58221021	     -0.43896557	      0.90070971	      0.30759989	     15.16165051	      7.65603004	     -2.55882473	    -22.85520987	     15.99475804	     -1.27221834	      4.06912167	     27.69364047	     -4.93765535	     -7.15591255	    -76.07961759	      2.23598547	     -9.99175080	     -0.91909246	     -5.09835140	      2.82241765	      1.79368275
      0.68133333	     -5.22189246	     -1.58063289	      3.45778581	     -0.43334028	      0.90194098	      0.30765024	     14.41251349	      7.47619968	     -2.37755539	    -22.19153911	     15.99908149	     -1.16009069	      4.09604535	     28.26967683	     -4.64095243	     -7.32412466	    -75.43269171	      2.57045579	    -10.30209242	     -0.98544766	     -5.13993480	      2.59650107	      1.97844237
      0.68550000	     -5.21868940	     -1.36409238	      3.31678308	     -0.42771511	      0.90312726	      0.30771064	     13.66906045	      7.29062959	     -2.19129679	    -21.53604083	     15.97113733	     -1.03968078	      4.11403219	     28.81867693	     -4.34626956	     -7.49523976	    -74.71307664	      2.91630348	    -10.56116945	     -1.03056561	     -5.18305751	      2.37410963	      2.12223162
      0.68966667	     -5.17354867	     -1.16632173	      3.17441149	     -0.42204389	      0.90433508	      0.30780728	     12.85778279	      7.13032831	     -1.99562375	    -20.82998473	     15.95877173	     -0.94553733	      4.16669383	     29.29847230	     -4.08789922	     -7.66319629	    -73.92700905	      3.19935206	    -10.78396605	     -1.15295399	     -5.26261129	      2.16263891	      2.41668092
      0.69383333	     -5.14134637	     -0.93623945	      3.01367766	     -0.41640590	      0.90546950	      0.30790133	     12.08768038	      6.92626767	     -1.80477310	    -20.17820905	     15.93084643	     -0.83202264	      4.18381411	     29.76212513	     -3.79373319	     -7.84217913	    -73.06254631	      3.49496941	    -10.96055209	     -1.19410346	     -5.33806228	      1.91503655	      2.52213577
      0.69800000	     -5.07533108	     -0.72576774	      2.85223611	     -0.41074076	      0.90660042	      0.30801132	     11.26796919	      6.74373605	     -1.61468419	    -19.49273437	     15.90280385	     -0.71785312	      4.20232972	     30.16793446	     -3.53043442	     -8.01133706	    -72.13835661	      3.75236899	    -11.11283745	     -1.23790064	     -5.44634101	      1.68914265	      2.69369661
      0.70216667	     -4.98573260	     -0.53719345	      2.69318526	     -0.40506562	      0.90769102	      0.30813635	     10.41320256	      6.58435129	     -1.42193763	    -18.78057189	     15.89676588	     -0.63434882	      4.23151660	     30.53267626	     -3.29912147	     -8.16528965	    -71.16438414	      3.98194945	    -11.21941993	     -1.30064358	     -5.57714967	      1.48455930	      2.93429560
      0.70633333	     -4.90644856	     -0.34203654	      2.51633160	     -0.39940461	      0.90869792	      0.30827433	      9.58678973	      6.41169147	     -1.23055260	    -18.09635234	     15.85383268	     -0.53442962	      4.25863185	     30.88273784	     -3.06619773	     -8.32619306	    -70.12764542	      4.21943411	    -11.29106938	     -1.35805001	     -5.69679786	      1.27236094	      3.13481038
      0.71050000	     -4.81864816	     -0.15810319	      2.33521993	     -0.39374837	      0.90964060	      0.30842178	      8.75372490	      6.24773268	     -1.03888242	    -17.41024398	     15.80732574	     -0.43651452	      4.28790729	     31.20472924	     -2.85031289	     -8.47651110	    -69.03753773	      4.44360688	    -11.33366208	     -1.41766653	     -5.82480209	      1.07254197	      3.34177875
      0.71466667	     -4.74492308	      0.03336984	      2.13640877	     -0.38812178	      0.91048636	      0.30858017	      7.95854760	      6.06759060	     -0.85602173	    -16.76142760	     15.73032028	     -0.31728328	      4.30805651	     31.51779337	     -2.63354743	     -8.63478597	    -67.88604265	      4.65918340	    -11.35153729	     -1.45811749	     -5.94000584	      0.86388076	      3.50807678
      0.71883333	     -4.63943080	      0.17176369	      1.95594809	     -0.38247013	      0.91128079	      0.30875010	      7.10251453	      5.94813274	     -0.65684408	    -16.05063076	     15.67357867	     -0.25564518	      4.36482403	     31.79127917	     -2.47516895	     -8.75022361	    -66.71046726	      4.86396293	    -11.33161495	     -1.55711073	     -6.08462232	      0.71520628	      3.79759574
      0.72300000	     -4.54779656	      0.33823417	      1.76237238	     -0.37684401	      0.91198231	      0.30890944	      6.29299630	      5.78533922	     -0.49837960	    -15.40261997	     15.65711285	     -0.13608504	      4.39722648	     32.05076261	     -2.28940455	     -8.87945362	    -65.46189453	      5.02850110	    -11.31833391	     -1.60982023	     -6.21491446	      0.52753224	      3.96543996
      0.72716667	     -4.47851514	      0.49727063	      1.55613646	     -0.37124877	      0.91256891	      0.30907419	      5.52760549	      5.62297332	     -0.34718073	    -14.78309102	     15.58485718	      0.00034823	      4.41851789	     32.31444828	     -2.11556251	     -9.00303623	    -64.16104369	      5.19466624	    -11.27496212	     -1.64404854	     -6.31798642	      0.34774509	      4.12657495
      0.73133333	     -4.37727350	      0.61050729	      1.37162691	     -0.36564537	      0.91309444	      0.30923454	      4.70704070	      5.51187415	     -0.18820563	    -14.11780119	     15.57087144	      0.10453236	      4.45813987	     32.53928471	     -1.98717330	     -9.08331067	    -62.83826299	      5.34404995	    -11.22576613	     -1.69742912	     -6.46432448	      0.22441302	      4.37492402
      0.73550000	     -4.32219971	      0.74581804	      1.16478260	     -0.36006545	      0.91348447	      0.30940203	      3.97377439	      5.36487735	     -0.05824269	    -13.52217884	     15.50920548	      0.24041705	      4.48243763	     32.78239143	     -1.84449367	     -9.18574164	    -61.44324458	      5.47619296	    -11.15248522	     -1.72942662	     -6.54101916	      0.06892066	      4.53846235
      0.73966667	     -4.25580574	      0.85125667	      0.96815083	     -0.35448764	      0.91379107	      0.30955992	      3.22322033	      5.24681596	      0.06341493	    -12.91162940	     15.47854672	      0.38353280	      4.50908765	     33.00222657	     -1.73077168	     -9.25925993	    -60.01663683	      5.59356618	    -11.08201242	     -1.76003827	     -6.63921506	     -0.05155881	      4.73421714
      0.74383333	     -4.19723374	      0.94207712	      0.77406739	     -0.34892193	      0.91399894	      0.30971381	      2.49047480	      5.14014337	      0.17359793	    -12.31578922	     15.45687032	      0.52359497	      4.53924224	     33.21356784	     -1.63260893	     -9.31550025	    -58.54726423	      5.69213305	    -11.00358674	     -1.79065068	     -6.72423058	     -0.15463018	      4.93934262
      0.74800000	     -4.15412973	      1.01691214	      0.58231706	     -0.34336162	      0.91409569	      0.30985506	      1.78437196	      5.04567231	      0.26850702	    -11.73736446	     15.44094975	      0.67427327	      4.57280950	     33.42297794	     -1.55089061	     -9.35684995	    -57.03509314	      5.77504951	    -10.91751915	     -1.82085389	     -6.79280634	     -0.24029995	      5.14685678
      0.75216667	     -4.12443559	      1.08085917	      0.38982694	     -0.33780511	      0.91408703	      0.30998689	      1.10274520	      4.95736925	      0.34798341	    -11.17581488	     15.42972197	      0.83662437	      4.60823313	     33.62812664	     -1.48225052	     -9.39033365	    -55.48174516	      5.83848708	    -10.82906238	     -1.84859973	     -6.84174412	     -0.31333714	      5.34805497
      0.75633333	     -4.08902971	      1.12156919	      0.20683028	     -0.33225179	      0.91399366	      0.31010236	      0.41480075	      4.89094032	      0.41763979	    -10.61435543	     15.45944331	      1.01351502	      4.66271024	     33.81208829	     -1.43397949	     -9.39907485	    -53.89713713	      5.88716055	    -10.74406801	     -1.88485105	     -6.90807287	     -0.35475624	      5.58628384
      0.76050000	     -4.09473186	      1.16764046	      0.01621733	     -0.32668921	      0.91377389	      0.31020927	     -0.20156797	      4.81092410	      0.45410817	    -10.10721431	     15.44040085	      1.20283612	      4.70341091	     34.01007222	     -1.38524765	     -9.41328128	    -52.25568497	      5.90895790	    -10.63248594	     -1.90888772	     -6.90705229	     -0.41004930	      5.75690304
